<svg width="8" height="17" viewBox="0 0 8 17" fill="none" xmlns="http://www.w3.org/2000/svg">
<path d="M5.8756 0.5C6.9476 0.5 7.4836 1.2296 7.4836 2.0656C7.4836 3.1096 6.5524 4.0752 5.3404 4.0752C4.3252 4.0752 3.7332 3.4752 3.7612 2.4832C3.7612 1.6488 4.466 0.5 5.8756 0.5ZM2.5772 16.5C1.7308 16.5 1.1108 15.9784 1.7028 13.6808L2.674 9.6072C2.8428 8.956 2.8708 8.6944 2.674 8.6944C2.4204 8.6944 1.3228 9.144 0.6724 9.588L0.25 8.884C2.3076 7.1352 4.6748 6.1104 5.6908 6.1104C6.5364 6.1104 6.6772 7.1288 6.2548 8.6944L5.142 12.976C4.9452 13.732 5.0292 13.9928 5.2268 13.9928C5.4804 13.9928 6.3124 13.6792 7.13 13.0272L7.61 13.6784C5.6084 15.716 3.422 16.5 2.5772 16.5Z" fill="#0E141C"/>
</svg>
