<svg width="157" height="50" viewBox="0 0 157 50" fill="none" xmlns="http://www.w3.org/2000/svg">
<g clip-path="url(#clip0_71_1959)">
<path d="M80.9569 0H24.8809C11.1396 0 0 11.1887 0 24.9906V24.9925C0 38.7944 11.1396 49.9831 24.8809 49.9831H80.9569C94.6982 49.9831 105.838 38.7944 105.838 24.9925V24.9906C105.838 11.1887 94.6982 0 80.9569 0Z" fill="#6210CC"/>
<path d="M15.3489 30.0124C15.9921 30.5138 16.6409 30.8876 17.2971 31.1298C17.9534 31.374 18.6097 31.496 19.266 31.496C20.0943 31.496 20.7431 31.3101 21.2143 30.9364C21.6855 30.5645 21.9211 30.0481 21.9211 29.3889C21.9211 28.8161 21.7341 28.3203 21.3639 27.9053C20.9918 27.4902 20.4795 27.1315 19.8232 26.8311C19.1669 26.5306 18.3947 26.2226 17.5103 25.9071C16.6259 25.5634 15.7471 25.154 14.8777 24.6807C14.0064 24.2075 13.294 23.584 12.7368 22.8103C12.1796 22.0365 11.901 21.0618 11.901 19.8862C11.901 18.7106 12.2077 17.6795 12.8209 16.8758C13.4342 16.0739 14.2625 15.4785 15.304 15.0917C16.3454 14.7048 17.4654 14.5114 18.6639 14.5114C19.7484 14.5114 20.7693 14.6691 21.7247 14.9846C22.6802 15.3001 23.544 15.7152 24.3144 16.2316C25.0847 16.7481 25.741 17.3359 26.2832 17.995L23.7142 20.7482C23.0579 19.9745 22.2726 19.3435 21.3601 18.8552C20.4458 18.3688 19.5053 18.1246 18.5349 18.1246C17.8786 18.1246 17.3364 18.2692 16.9082 18.5547C16.4801 18.842 16.265 19.2571 16.265 19.8017C16.265 20.2599 16.4576 20.6693 16.8428 21.028C17.228 21.3867 17.7422 21.7097 18.3835 21.9952C19.0267 22.2825 19.7465 22.583 20.5449 22.8985C21.6294 23.3286 22.6278 23.8018 23.5421 24.3183C24.4546 24.8347 25.1913 25.4658 25.7466 26.2113C26.3038 26.9569 26.5805 27.9316 26.5805 29.1354C26.5805 30.9984 25.9448 32.497 24.6752 33.6294C23.4038 34.7619 21.6855 35.329 19.5166 35.329C18.1741 35.329 16.94 35.1206 15.8126 34.7055C14.6851 34.2905 13.6997 33.7459 12.8583 33.0717C12.0169 32.3993 11.3102 31.6895 10.7399 30.9439L13.438 28.2339C14.0662 28.9213 14.7 29.5166 15.3432 30.018L15.3489 30.0124Z" fill="white"/>
<path d="M35.6002 33.8604C34.0726 33.0003 32.8947 31.7965 32.0682 30.249C31.2399 28.7016 30.8267 26.8949 30.8267 24.831C30.8267 22.7671 31.2474 20.9172 32.0888 19.3698C32.9302 17.8223 34.1231 16.626 35.6638 15.779C37.2045 14.9339 39.0181 14.5114 41.1011 14.5114C43.184 14.5114 44.9546 14.9132 46.4093 15.7152C47.8658 16.5189 48.984 17.672 49.7711 19.1763C50.5564 20.6806 50.9491 22.4948 50.9491 24.6169C50.9491 24.846 50.9416 25.0901 50.9285 25.3474C50.9136 25.6047 50.893 25.7925 50.8649 25.9071H33.5678V22.7257H46.9254L45.5118 24.7033C45.5978 24.5305 45.6894 24.2958 45.7904 23.9934C45.8895 23.6929 45.94 23.4413 45.94 23.2403C45.94 22.1792 45.7324 21.2628 45.3192 20.4872C44.906 19.7134 44.3339 19.1106 43.6065 18.6805C42.8792 18.2505 42.0285 18.0345 41.058 18.0345C39.8876 18.0345 38.8891 18.2918 38.0608 18.8082C37.2325 19.3247 36.6043 20.0702 36.1761 21.0449C35.7479 22.0196 35.5198 23.2234 35.4918 24.6563C35.4918 26.0911 35.7049 27.3006 36.135 28.2903C36.5631 29.28 37.1989 30.0312 38.0403 30.5476C38.8817 31.0641 39.9025 31.3214 41.1011 31.3214C42.2996 31.3214 43.4551 31.0641 44.3974 30.5476C45.3398 30.0312 46.1232 29.2443 46.7515 28.1814L50.7341 29.8152C49.7057 31.5937 48.38 32.9271 46.7515 33.8154C45.1248 34.7037 43.169 35.1487 40.886 35.1487C38.8873 35.1487 37.1259 34.7187 35.5984 33.8586L35.6002 33.8604Z" fill="white"/>
<path d="M61.5675 34.7206H56.9865V14.9395H61.5675V34.7206ZM66.2344 19.1106C65.8642 18.9378 65.393 18.8533 64.8208 18.8533C64.0505 18.8533 63.4222 19.0542 62.9361 19.4561C62.45 19.858 62.1003 20.4102 61.8872 21.1125C61.6722 21.8149 61.5656 22.6394 61.5656 23.5859L60.0249 22.6825C60.0249 21.1069 60.3166 19.7078 60.9018 18.489C61.4871 17.2701 62.2424 16.303 63.1717 15.5856C64.0991 14.8701 65.062 14.5114 66.0624 14.5114C66.7747 14.5114 67.446 14.6184 68.0742 14.8344C68.7025 15.0485 69.2297 15.4297 69.6579 15.9743L67.431 19.8881C67.0028 19.5444 66.6027 19.2852 66.2325 19.1143L66.2344 19.1106Z" fill="white"/>
<path d="M74.2818 44.1819V14.9395H78.9487V44.1819H74.2818ZM93.933 30.4424C93.0486 32.0049 91.8781 33.1956 90.4216 34.0125C88.9669 34.8295 87.3814 35.2389 85.6687 35.2389C83.956 35.2389 82.5219 34.8163 81.2803 33.9712C80.0388 33.1261 79.0815 31.9223 78.4121 30.3579C77.7409 28.7954 77.4062 26.9531 77.4062 24.8328C77.4062 22.7126 77.7409 20.8327 78.4121 19.2852C79.0815 17.7377 80.0388 16.5415 81.2803 15.6945C82.5219 14.8494 83.984 14.4268 85.6687 14.4268C87.3533 14.4268 88.965 14.8343 90.4216 15.6532C91.8781 16.4701 93.0467 17.6532 93.933 19.2007C94.8174 20.7482 95.2605 22.6262 95.2605 24.8347C95.2605 27.0433 94.8174 28.8837 93.933 30.4462V30.4424ZM89.6512 21.4543C89.109 20.5228 88.3892 19.8205 87.4898 19.3472C86.5905 18.8739 85.5995 18.6373 84.515 18.6373C83.6306 18.6373 82.7593 18.8739 81.903 19.3472C81.0466 19.8205 80.3399 20.5153 79.7845 21.4337C79.2273 22.352 78.9487 23.4844 78.9487 24.831C78.9487 26.1775 79.2273 27.3118 79.7845 28.2283C80.3417 29.1466 81.0466 29.8415 81.903 30.3147C82.7593 30.788 83.6288 31.0246 84.515 31.0246C85.5995 31.0246 86.5923 30.788 87.4898 30.3147C88.3892 29.8415 89.109 29.1391 89.6512 28.2076C90.1935 27.2761 90.4646 26.1512 90.4646 24.8328C90.4646 23.5145 90.1935 22.3896 89.6512 21.4562V21.4543Z" fill="white"/>
<path d="M112.034 5.0481C112.619 4.50348 113.298 4.23117 114.068 4.23117C114.895 4.23117 115.589 4.50348 116.146 5.0481C116.703 5.59273 116.982 6.26693 116.982 7.06884C116.982 7.87075 116.703 8.50927 116.146 9.06891C115.589 9.62856 114.897 9.90838 114.068 9.90838C113.298 9.90838 112.619 9.62856 112.034 9.06891C111.449 8.50927 111.157 7.84258 111.157 7.06884C111.157 6.2951 111.449 5.59273 112.034 5.0481ZM116.336 14.9396V34.7206H111.799V14.9396H116.336Z" fill="#0E141C"/>
<path d="M134.019 14.9395V19.0242H122.716V14.9395H134.019ZM132.542 5.26406C132.185 5.12133 131.82 5.04809 131.45 5.04809C131.022 5.04809 130.657 5.16265 130.358 5.39177C130.059 5.62088 129.823 5.9946 129.651 6.50918C129.479 7.02375 129.395 7.69983 129.395 8.52991V34.7187H124.857V7.62659C124.857 6.07911 125.106 4.79644 125.607 3.77856C126.106 2.76068 126.828 1.98694 127.768 1.45734C128.711 0.927747 129.866 0.661072 131.237 0.661072C132.007 0.661072 132.678 0.762485 133.248 0.961554C133.819 1.1625 134.312 1.40664 134.726 1.69209C135.139 1.97943 135.46 2.26677 135.688 2.55222L133.505 6.16362C133.219 5.70539 132.897 5.40491 132.542 5.2603V5.26406Z" fill="#0E141C"/>
<path d="M143.781 44.182H138.858L143.996 32.3993L136.076 14.9395H141.384L147.677 30.5927L145.493 30.4631L151.658 14.9395H156.624L143.779 44.182H143.781Z" fill="#0E141C"/>
</g>
<defs>
<clipPath id="clip0_71_1959">
<rect width="157" height="50" fill="white"/>
</clipPath>
</defs>
</svg>
